<mxfile host="app.diagrams.net" modified="2024-07-17T00:48:22.509Z" agent="Mozilla/5.0 (Windows NT 10.0; Win64; x64) AppleWebKit/537.36 (KHTML, like Gecko) Chrome/126.0.0.0 Safari/537.36 Edg/126.0.0.0" version="24.7.0" etag="LvFWrFV9a0WdelX5mboC" type="github">
  <diagram name="페이지-1" id="P9vNysXN8B6xdTPQghae">
    <mxGraphModel>
      <root>
        <mxCell id="0" />
        <mxCell id="1" parent="0" />
      </root>
    </mxGraphModel>
  </diagram>
</mxfile>
